<svg viewBox="0 0 200 220" xmlns="http://www.w3.org/2000/svg" role="img" aria-label="Mango">
  <defs>
    <radialGradient id="mBody" cx="38%" cy="34%" r="78%">
      <stop offset="0%"  stop-color="#FFE9A8"/>
      <stop offset="32%" stop-color="#FFC847"/>
      <stop offset="68%" stop-color="#FF9A23"/>
      <stop offset="100%" stop-color="#EF6A0E"/>
    </radialGradient>
    <linearGradient id="mCheek" x1="0" y1="0" x2="1" y2="1">
      <stop offset="0%" stop-color="#F0521B" stop-opacity=".0"/>
      <stop offset="100%" stop-color="#E23C12" stop-opacity=".55"/>
    </linearGradient>
    <linearGradient id="mLeaf" x1="0" y1="0" x2="1" y2="1">
      <stop offset="0%" stop-color="#5FB152"/>
      <stop offset="100%" stop-color="#0C5226"/>
    </linearGradient>
  </defs>
  <!-- stem -->
  <path d="M118 36 C120 22 128 16 138 14" fill="none" stroke="#6B4A1E" stroke-width="6" stroke-linecap="round"/>
  <!-- leaf -->
  <path d="M132 16 C160 6 184 18 188 40 C166 50 140 44 132 16 Z" fill="url(#mLeaf)"/>
  <path d="M138 22 C154 24 168 32 182 40" fill="none" stroke="#0a3318" stroke-width="2" stroke-opacity=".5" stroke-linecap="round"/>
  <!-- body -->
  <path d="M100 44
           C150 44 184 86 184 132
           C184 180 146 210 100 210
           C54 210 18 182 18 134
           C18 84 52 44 100 44 Z" fill="url(#mBody)"/>
  <!-- blush cheek -->
  <path d="M100 44 C150 44 184 86 184 132 C184 180 146 210 100 210 C140 196 162 160 162 124 C162 84 134 52 100 44 Z" fill="url(#mCheek)"/>
  <!-- highlight -->
  <ellipse cx="70" cy="92" rx="30" ry="20" fill="#FFFFFF" opacity=".38" transform="rotate(-26 70 92)"/>
  <ellipse cx="58" cy="78" rx="9" ry="6" fill="#FFFFFF" opacity=".7" transform="rotate(-26 58 78)"/>
</svg>
