<svg viewBox="0 0 120 160" xmlns="http://www.w3.org/2000/svg" role="img" aria-label="Mango leaf">
  <defs>
    <linearGradient id="lf" x1="0" y1="0" x2="1" y2="1">
      <stop offset="0%" stop-color="#5FB152"/>
      <stop offset="55%" stop-color="#1B7A3A"/>
      <stop offset="100%" stop-color="#08361B"/>
    </linearGradient>
  </defs>
  <path d="M60 4 C104 30 116 96 60 156 C4 96 16 30 60 4 Z" fill="url(#lf)"/>
  <path d="M60 14 L60 150" stroke="#06250F" stroke-width="3" stroke-opacity=".55" stroke-linecap="round"/>
  <g stroke="#06250F" stroke-width="2" stroke-opacity=".4" fill="none" stroke-linecap="round">
    <path d="M60 44 C78 48 86 60 92 74"/>
    <path d="M60 44 C42 48 34 60 28 74"/>
    <path d="M60 78 C80 82 90 96 96 112"/>
    <path d="M60 78 C40 82 30 96 24 112"/>
  </g>
  <path d="M60 4 C84 24 96 70 70 120" stroke="#ffffff" stroke-opacity=".2" stroke-width="6" fill="none" stroke-linecap="round"/>
</svg>
